HIERARCHY
ROOT Hips
{
	OFFSET -0.001795 -0.223333 0.028219
	CHANNELS 6 Xposition Yposition Zposition Zrotation Yrotation Xrotation 
	JOINT LeftUpLeg
	{
		OFFSET 0.069520 -0.091406 -0.006815
		CHANNELS 3 Zrotation Yrotation Xrotation
		JOINT LeftLeg
		{
			OFFSET 0.034277 -0.375199 -0.004496
			CHANNELS 3 Zrotation Yrotation Xrotation
			JOINT LeftFoot
			{
				OFFSET -0.013596 -0.397961 -0.043693
				CHANNELS 3 Zrotation Yrotation Xrotation
				JOINT LeftToe
				{
					OFFSET 0.026358 -0.055791 0.119288
					CHANNELS 3 Zrotation Yrotation Xrotation
					End Site
					{
						OFFSET 0.000000 0.000000 0.000000
					}
				}
			}
		}
	}
	JOINT RightUpLeg
	{
		OFFSET -0.067670 -0.090522 -0.004320
		CHANNELS 3 Zrotation Yrotation Xrotation
		JOINT RightLeg
		{
			OFFSET -0.038290 -0.382569 -0.008850
			CHANNELS 3 Zrotation Yrotation Xrotation
			JOINT RightFoot
			{
				OFFSET 0.015774 -0.398415 -0.042312
				CHANNELS 3 Zrotation Yrotation Xrotation
				JOINT RightToe
				{
					OFFSET -0.025372 -0.048144 0.123348
					CHANNELS 3 Zrotation Yrotation Xrotation
					End Site
					{
						OFFSET 0.000000 0.000000 0.000000
					}
				}
			}
		}
	}
	JOINT Spine
	{
		OFFSET -0.002533 0.108963 -0.026696
		CHANNELS 3 Zrotation Yrotation Xrotation
		JOINT Spine1
		{
			OFFSET 0.005487 0.135180 0.001092
			CHANNELS 3 Zrotation Yrotation Xrotation
			JOINT Spine2
			{
				OFFSET 0.001457 0.052922 0.025425
				CHANNELS 3 Zrotation Yrotation Xrotation
				JOINT Neck
				{
					OFFSET -0.002778 0.213870 -0.042857
					CHANNELS 3 Zrotation Yrotation Xrotation
					JOINT Head
					{
						OFFSET 0.005152 0.064970 0.051349
						CHANNELS 3 Zrotation Yrotation Xrotation
						End Site
						{
							OFFSET 0.000000 0.000000 0.000000
						}
					}
				}
				JOINT LeftShoulder
				{
					OFFSET 0.078845 0.121749 -0.034090
					CHANNELS 3 Zrotation Yrotation Xrotation
					JOINT LeftArm
					{
						OFFSET 0.090977 0.030469 -0.008868
						CHANNELS 3 Zrotation Yrotation Xrotation
						JOINT LeftForeArm
						{
							OFFSET 0.259612 -0.012772 -0.027456
							CHANNELS 3 Zrotation Yrotation Xrotation
							JOINT LeftHand
							{
								OFFSET 0.249234 0.008986 -0.001171
								CHANNELS 3 Zrotation Yrotation Xrotation
								End Site
								{
									OFFSET 0.000000 0.000000 0.000000
								}
							}
						}
					}
				}
				JOINT RightShoulder
				{
					OFFSET -0.081759 0.118833 -0.038615
					CHANNELS 3 Zrotation Yrotation Xrotation
					JOINT RightArm
					{
						OFFSET -0.096012 0.032551 -0.009143
						CHANNELS 3 Zrotation Yrotation Xrotation
						JOINT RightForeArm
						{
							OFFSET -0.253742 -0.013329 -0.021401
							CHANNELS 3 Zrotation Yrotation Xrotation
							JOINT RightHand
							{
								OFFSET -0.255298 0.007772 -0.005559
								CHANNELS 3 Zrotation Yrotation Xrotation
								End Site
								{
									OFFSET 0.000000 0.000000 0.000000
								}
							}
						}
					}
				}
			}
		}
	}
}
MOTION
Frames: 8
Frame Time: 0.050000
0.000872 0.956331 -0.082392 0.231018 -15.036601 9.895346 5.353119 -0.419319 -12.385826 -1.341620 0.172292 6.431850 6.371783 13.358297 12.519434 0.000000 0.000000 0.000000 -2.616968 1.546919 -15.351830 -7.170775 0.774238 1.555125 11.088637 13.251738 14.238758 0.000000 0.000000 0.000000 7.766980 -0.270426 0.148242 2.583581 -1.090866 -4.187273 -10.145870 -3.312640 4.892397 13.947267 -11.314420 1.565187 0.000000 0.000000 0.000000 35.905464 -12.143674 0.899133 -0.192598 -31.059719 -0.663191 79.919476 -38.171955 -24.569598 0.000000 0.000000 0.000000 -30.196275 -9.219378 4.221184 10.693539 33.039905 -0.715137 -114.262955 52.894236 -77.245731 0.000000 0.000000 0.000000 
0.001643 0.955859 -0.082865 0.345134 -15.551943 9.569681 5.261531 -0.412150 -12.240286 -1.470854 0.209234 6.876360 6.539478 13.590615 12.074171 0.000000 0.000000 0.000000 -2.962909 1.528735 -15.307419 -6.920551 0.768947 1.782716 11.522504 13.715804 14.635910 0.000000 0.000000 0.000000 7.610025 -0.272973 0.299148 2.529838 -1.072381 -4.312173 -9.929835 -2.948680 4.767105 13.339031 -10.663971 0.643457 0.000000 0.000000 0.000000 34.175275 -11.664727 0.994867 -1.854697 -31.104469 -0.416227 86.249485 -38.924061 -28.198643 0.000000 0.000000 0.000000 -28.998511 -8.522295 4.028159 11.747971 34.226522 -0.494235 -115.703666 51.664381 -77.048146 0.000000 0.000000 0.000000 
0.002398 0.955162 -0.083435 0.567991 -15.703069 9.450363 5.270477 -0.409934 -12.500884 -1.774112 0.272823 6.915713 6.945321 14.241709 12.374795 0.000000 0.000000 0.000000 -3.152283 1.499301 -15.119149 -7.100460 0.777407 1.689298 11.433306 13.984802 14.121918 0.000000 0.000000 0.000000 7.492213 -0.256082 0.192514 2.555458 -1.090407 -3.788259 -9.790341 -2.664825 4.054287 13.457414 -10.390859 -1.067172 0.000000 0.000000 0.000000 32.053777 -11.014151 1.214792 -2.470355 -30.759202 -0.380153 92.603996 -39.179594 -31.973120 0.000000 0.000000 0.000000 -27.840201 -8.199845 3.796879 12.095596 35.594840 -0.350549 -116.546031 50.982275 -76.659472 0.000000 0.000000 0.000000 
0.002888 0.955240 -0.084272 0.608408 -15.757158 9.278485 5.266628 -0.405240 -12.332897 -1.953464 0.307263 6.745201 7.068254 14.451163 12.080847 0.000000 0.000000 0.000000 -3.343153 1.502984 -15.243532 -6.927665 0.805461 2.113128 11.309678 14.198970 13.629281 0.000000 0.000000 0.000000 7.353481 -0.253714 0.238631 2.656863 -1.129131 -4.137440 -9.745869 -2.613600 4.171787 12.956985 -9.905791 -1.715554 0.000000 0.000000 0.000000 30.692448 -10.243080 1.208316 -2.945631 -30.538532 -0.331220 96.630886 -38.732140 -33.791166 0.000000 0.000000 0.000000 -26.736521 -7.315277 3.662526 11.378507 36.483547 -0.516032 -117.957565 50.411380 -77.351062 0.000000 0.000000 0.000000 
0.003061 0.955963 -0.085055 0.635899 -15.770147 9.411505 5.354376 -0.398523 -12.550316 -1.936963 0.302727 6.659125 7.070183 14.430961 12.615726 0.000000 0.000000 0.000000 -3.464242 1.489040 -15.158357 -6.789473 0.730764 1.577890 11.279143 13.656992 14.123354 0.000000 0.000000 0.000000 7.513031 -0.225558 -0.080016 2.221274 -0.945470 -4.702976 -9.714995 -1.944008 4.517941 13.203703 -9.792150 -3.518644 0.000000 0.000000 0.000000 29.922522 -9.846408 1.294745 -2.334006 -31.420995 -0.482832 95.644474 -35.979509 -30.807223 0.000000 0.000000 0.000000 -26.119336 -6.920238 3.438351 12.152294 36.873560 -0.269290 -118.133955 49.983701 -76.495321 0.000000 0.000000 0.000000 
0.003177 0.956651 -0.085628 0.482428 -15.442354 9.457380 5.660342 -0.370214 -12.577791 -2.226476 0.350621 6.337381 6.997999 14.342064 12.759221 0.000000 0.000000 0.000000 -3.171384 1.502870 -15.192245 -6.744348 0.737878 1.669780 10.871338 13.102145 13.846898 0.000000 0.000000 0.000000 7.093857 -0.205215 -0.217358 2.627253 -1.095507 -5.313307 -9.707499 -1.736292 4.495093 13.332269 -9.771543 -4.115406 0.000000 0.000000 0.000000 29.397950 -9.092069 1.322022 -1.672720 -32.870661 -0.626776 92.116667 -32.291799 -25.665139 0.000000 0.000000 0.000000 -25.097311 -6.362337 3.224572 11.989323 37.692974 -0.246793 -117.538734 49.211433 -74.451249 0.000000 0.000000 0.000000 
0.003497 0.957447 -0.085605 0.366617 -14.528778 9.458687 5.953687 -0.358514 -12.452059 -2.457555 0.377036 5.982796 6.676548 13.915026 12.862734 0.000000 0.000000 0.000000 -3.240728 1.425359 -14.614257 -6.444850 0.677956 1.340778 10.356828 12.251795 13.736695 0.000000 0.000000 0.000000 6.920449 -0.172250 -0.538754 2.801353 -1.141170 -5.990760 -9.781041 -1.720311 4.747339 13.290831 -9.559540 -5.136944 0.000000 0.000000 0.000000 28.798267 -9.121636 1.423681 -1.239557 -34.404653 -0.761706 90.339533 -28.670557 -21.787223 0.000000 0.000000 0.000000 -23.771432 -5.740209 2.941625 13.029913 38.157590 0.097421 -116.893623 49.094844 -73.142074 0.000000 0.000000 0.000000 
0.004364 0.957670 -0.084964 0.209299 -13.512753 9.483696 6.106932 -0.365793 -12.346750 -2.443086 0.358722 5.870827 6.407464 13.586265 12.588071 0.000000 0.000000 0.000000 -3.111919 1.349281 -13.937385 -6.532377 0.658872 0.998468 9.792998 11.626067 13.267212 0.000000 0.000000 0.000000 6.588457 -0.113300 -1.085694 2.992242 -1.201513 -6.117095 -9.650914 -1.518493 4.288978 13.374804 -9.472900 -5.674217 0.000000 0.000000 0.000000 27.747063 -8.545128 1.589550 -1.469576 -37.081713 -0.804811 89.643286 -27.188097 -20.646915 0.000000 0.000000 0.000000 -21.964712 -5.120248 2.559062 14.635329 37.803503 0.661953 -117.742178 49.493965 -73.846780 0.000000 0.000000 0.000000 
